<svg width="187" height="187" viewBox="0 0 187 187" fill="none" xmlns="http://www.w3.org/2000/svg">
<g clip-path="url(#clip0_1_14)">
<circle cx="93.5" cy="93.5" r="93.5" fill="#131313"/>
<path d="M59.5 128V70.5312H39.25V60.3594H91.75V70.5312H71.5469V128H59.5ZM119.972 129.172C114.785 129.172 110.254 128.391 106.379 126.828C102.504 125.266 99.4412 123.031 97.1912 120.125C94.9725 117.219 93.7225 113.75 93.4412 109.719L93.3944 109.016H104.926L105.019 109.578C105.363 111.516 106.207 113.188 107.551 114.594C108.894 116 110.66 117.094 112.847 117.875C115.066 118.625 117.582 119 120.394 119C123.238 119 125.691 118.609 127.754 117.828C129.847 117.047 131.457 115.938 132.582 114.5C133.707 113.031 134.269 111.328 134.269 109.391V109.344C134.269 106.812 133.316 104.812 131.41 103.344C129.535 101.875 126.41 100.672 122.035 99.7344L114.769 98.2344C108.144 96.8594 103.176 94.6094 99.8631 91.4844C96.5506 88.3281 94.8944 84.2344 94.8944 79.2031V79.1562C94.9256 75.1562 96.0037 71.6719 98.1287 68.7031C100.285 65.7031 103.254 63.375 107.035 61.7188C110.816 60.0312 115.129 59.1875 119.972 59.1875C124.879 59.1875 129.176 60 132.863 61.625C136.551 63.25 139.441 65.5156 141.535 68.4219C143.66 71.3281 144.832 74.7031 145.051 78.5469L145.097 79.3438H133.566L133.472 78.7344C133.191 76.7656 132.457 75.0938 131.269 73.7188C130.082 72.3125 128.519 71.2344 126.582 70.4844C124.644 69.7344 122.41 69.3594 119.879 69.3594C117.254 69.3594 114.972 69.75 113.035 70.5312C111.129 71.2812 109.644 72.3438 108.582 73.7188C107.551 75.0938 107.035 76.6875 107.035 78.5V78.5469C107.035 80.9219 107.988 82.8594 109.894 84.3594C111.832 85.8281 114.832 86.9844 118.894 87.8281L126.16 89.3281C130.879 90.2969 134.722 91.6094 137.691 93.2656C140.66 94.9219 142.847 97 144.254 99.5C145.691 102 146.41 105 146.41 108.5V108.547C146.41 112.734 145.347 116.375 143.222 119.469C141.129 122.562 138.097 124.953 134.129 126.641C130.191 128.328 125.472 129.172 119.972 129.172Z" fill="white"/>
<g filter="url(#filter0_f_1_14)">
<circle cx="-192.5" cy="301.5" r="387.5" fill="#212121"/>
</g>
</g>
<defs>
<filter id="filter0_f_1_14" x="-880" y="-386" width="1375" height="1375" filterUnits="userSpaceOnUse" color-interpolation-filters="sRGB">
<feFlood flood-opacity="0" result="BackgroundImageFix"/>
<feBlend mode="normal" in="SourceGraphic" in2="BackgroundImageFix" result="shape"/>
<feGaussianBlur stdDeviation="150" result="effect1_foregroundBlur_1_14"/>
</filter>
<clipPath id="clip0_1_14">
<rect width="187" height="187" rx="93.5" fill="white"/>
</clipPath>
</defs>
</svg>
